<svg xmlns="http://www.w3.org/2000/svg" width="512" height="512" xml:space="preserve"><g><path style="stroke:none;stroke-width:1;stroke-dasharray:none;stroke-linecap:butt;stroke-dashoffset:0;stroke-linejoin:miter;stroke-miterlimit:4;fill:#000;fill-rule:nonzero;opacity:1" transform="translate(0 134)" d="M0 0h512v512H0z"/><path style="stroke:none;stroke-width:1;stroke-dasharray:none;stroke-linecap:butt;stroke-dashoffset:0;stroke-linejoin:miter;stroke-miterlimit:4;fill:#fff;fill-rule:nonzero;opacity:1" transform="translate(0 134)" d="M258.805 461.054c45.057-161.12 43.75-161.848 76.32-276.73l7.832 4.523c4.255 2.458 7.738.448 7.738-4.455v-54.786c8.643-30.27 15.416-53.66 17.4-60.693h35.286L462 123.217l-38.498 33.27 29.11 31.473-191.86 273.094c-.938 1.542-2.244 1.19-1.947 0z"/><path style="stroke:none;stroke-width:1;stroke-dasharray:none;stroke-linecap:butt;stroke-dashoffset:0;stroke-linejoin:miter;stroke-miterlimit:4;fill:#fff;fill-rule:nonzero;opacity:1" transform="translate(0 134)" d="M279.766 113.776c1.732 0 3.147.958 3.147 2.147V144c0 1.186-1.415 2.15-3.147 2.15H232.37c-1.742 0-3.153-.96-3.153-2.15v-28.077c0-1.185 1.41-2.147 3.153-2.147h47.396m58.499-31.088-52.14 30.1c.605.92.973 1.98.973 3.136v28.078c0 1.457-.564 2.77-1.496 3.83l52.663 30.402c3.59 2.073 6.535.377 6.535-3.764V86.456c0-4.145-2.944-5.836-6.535-3.768zM225.03 144v-28.077c0-1.15.368-2.21.966-3.13l-52.14-30.105c-3.588-2.068-6.53-.376-6.53 3.768v88.013c0 4.14 2.938 5.84 6.53 3.763l52.66-30.405c-.926-1.06-1.487-2.37-1.487-3.827z"/><path style="stroke:none;stroke-width:1;stroke-dasharray:none;stroke-linecap:butt;stroke-dashoffset:0;stroke-linejoin:miter;stroke-miterlimit:4;fill:#fff;fill-rule:nonzero;opacity:1" transform="translate(0 134)" d="M251.248 461.054h1.947c-45.05-161.12-43.753-161.848-76.32-276.73l-7.833 4.523c-4.253 2.458-7.737.448-7.737-4.455v-54.786c-8.646-30.27-15.416-53.66-17.405-60.693h-35.283L50 123.217l38.494 33.27-29.11 31.473 191.864 273.094z"/><circle style="stroke:none;stroke-width:1;stroke-dasharray:none;stroke-linecap:butt;stroke-dashoffset:0;stroke-linejoin:miter;stroke-miterlimit:4;fill:#fff;fill-rule:nonzero;opacity:1" r="14.231" transform="translate(254.57 324.54)"/><circle style="stroke:none;stroke-width:1;stroke-dasharray:none;stroke-linecap:butt;stroke-dashoffset:0;stroke-linejoin:miter;stroke-miterlimit:4;fill:#fff;fill-rule:nonzero;opacity:1" r="14.231" transform="translate(254.57 409.16)"/><circle style="stroke:none;stroke-width:1;stroke-dasharray:none;stroke-linecap:butt;stroke-dashoffset:0;stroke-linejoin:miter;stroke-miterlimit:4;fill:#fff;fill-rule:nonzero;opacity:1" r="14.23" transform="translate(254.57 493.79)"/></g><g><path style="stroke:none;stroke-width:1;stroke-dasharray:none;stroke-linecap:butt;stroke-dashoffset:0;stroke-linejoin:miter;stroke-miterlimit:4;fill:#000;fill-rule:nonzero;opacity:1" transform="translate(0 -53)" d="M0 0h512v512H0z"/><path style="stroke:none;stroke-width:1;stroke-dasharray:none;stroke-linecap:butt;stroke-dashoffset:0;stroke-linejoin:miter;stroke-miterlimit:4;fill:#fff;fill-rule:nonzero;opacity:1" transform="translate(0 -53)" d="M258.805 461.054c45.057-161.12 43.75-161.848 76.32-276.73l7.832 4.523c4.255 2.458 7.738.448 7.738-4.455v-54.786c8.643-30.27 15.416-53.66 17.4-60.693h35.286L462 123.217l-38.498 33.27 29.11 31.473-191.86 273.094c-.938 1.542-2.244 1.19-1.947 0z"/><path style="stroke:none;stroke-width:1;stroke-dasharray:none;stroke-linecap:butt;stroke-dashoffset:0;stroke-linejoin:miter;stroke-miterlimit:4;fill:#fff;fill-rule:nonzero;opacity:1" transform="translate(0 -53)" d="M279.766 113.776c1.732 0 3.147.958 3.147 2.147V144c0 1.186-1.415 2.15-3.147 2.15H232.37c-1.742 0-3.153-.96-3.153-2.15v-28.077c0-1.185 1.41-2.147 3.153-2.147h47.396m58.499-31.088-52.14 30.1c.605.92.973 1.98.973 3.136v28.078c0 1.457-.564 2.77-1.496 3.83l52.663 30.402c3.59 2.073 6.535.377 6.535-3.764V86.456c0-4.145-2.944-5.836-6.535-3.768zM225.03 144v-28.077c0-1.15.368-2.21.966-3.13l-52.14-30.105c-3.588-2.068-6.53-.376-6.53 3.768v88.013c0 4.14 2.938 5.84 6.53 3.763l52.66-30.405c-.926-1.06-1.487-2.37-1.487-3.827z"/><path style="stroke:none;stroke-width:1;stroke-dasharray:none;stroke-linecap:butt;stroke-dashoffset:0;stroke-linejoin:miter;stroke-miterlimit:4;fill:#fff;fill-rule:nonzero;opacity:1" transform="translate(0 -53)" d="M251.248 461.054h1.947c-45.05-161.12-43.753-161.848-76.32-276.73l-7.833 4.523c-4.253 2.458-7.737.448-7.737-4.455v-54.786c-8.646-30.27-15.416-53.66-17.405-60.693h-35.283L50 123.217l38.494 33.27-29.11 31.473 191.864 273.094z"/><circle style="stroke:none;stroke-width:1;stroke-dasharray:none;stroke-linecap:butt;stroke-dashoffset:0;stroke-linejoin:miter;stroke-miterlimit:4;fill:#fff;fill-rule:nonzero;opacity:1" r="14.231" transform="translate(254.57 137.54)"/><circle style="stroke:none;stroke-width:1;stroke-dasharray:none;stroke-linecap:butt;stroke-dashoffset:0;stroke-linejoin:miter;stroke-miterlimit:4;fill:#fff;fill-rule:nonzero;opacity:1" r="14.231" transform="translate(254.57 222.16)"/><circle style="stroke:none;stroke-width:1;stroke-dasharray:none;stroke-linecap:butt;stroke-dashoffset:0;stroke-linejoin:miter;stroke-miterlimit:4;fill:#fff;fill-rule:nonzero;opacity:1" r="14.23" transform="translate(254.57 306.79)"/></g><g><path style="stroke:none;stroke-width:1;stroke-dasharray:none;stroke-linecap:butt;stroke-dashoffset:0;stroke-linejoin:miter;stroke-miterlimit:4;fill:#000;fill-rule:nonzero;opacity:1" transform="matrix(2.21 0 0 2.21 103.64 393.25)" d="M0 0h138v56H0V0z"/><path style="stroke:none;stroke-width:1;stroke-dasharray:none;stroke-linecap:butt;stroke-dashoffset:0;stroke-linejoin:miter;stroke-miterlimit:4;fill:#fff;fill-rule:nonzero;opacity:1" transform="matrix(2.21 0 0 2.21 103.64 393.25)" d="M10.058 39.846c-1.023-.36-1.754-.785-2.19-1.277-.44-.5-.658-1.04-.658-1.63s.164-1.09.492-1.48c.328-.39.762-.59 1.3-.59s1.017.16 1.43.48c.413.32.622.77.622 1.36s-.36 1.07-1.078 1.46c.594.51 1.5.77 2.72.77 2.64 0 3.96-.75 3.96-2.25 0-.94-.836-1.69-2.508-2.25-.688-.24-1.38-.49-2.074-.75s-1.3-.66-1.816-1.17a2.81 2.81 0 0 1-.844-1.88c0-1.07.352-1.96 1.055-2.7 1.32-1.41 3.31-2.11 5.95-2.11 1.29 0 2.44.24 3.44.74s1.5 1.13 1.5 1.91-.2 1.338-.6 1.68c-.4.34-.87.51-1.4.51-.53 0-.98-.14-1.35-.43-.37-.29-.55-.69-.55-1.21 0-.522.3-.96.91-1.34-.38-.27-1.03-.4-1.95-.4s-1.75.14-2.49.41c-.74.27-1.11.64-1.11 1.108 0 .47.27.86.81 1.17.54.31 1.19.604 1.95.87.76.267 1.53.57 2.3.915.77.344 1.42.836 1.96 1.477s.81 1.43.81 2.37c0 .94-.39 1.79-1.15 2.556-1.45 1.45-3.44 2.18-5.95 2.18-1.33 0-2.51-.18-3.53-.54l.038.04zM26.452 26.37c1.61-5 3.25-9.188 4.922-12.563l2.906.234c-.172.5-.594 1.71-1.266 3.61-1.453 4.21-2.39 7.11-2.813 8.72h3.68l-.37 1.55h-3.8c-1.43 4.44-2.15 7.14-2.15 8.102 0 .96.1 1.44.3 1.44.2 0 .37-.04.53-.11.42-.23 1.33-1.37 2.72-3.42l.96.87c-1.04 1.91-2.12 3.32-3.23 4.23-1.11.91-2.02 1.368-2.74 1.368-.72 0-1.26-.25-1.63-.75-.37-.5-.55-1.14-.55-1.92 0-1.98.7-5.25 2.09-9.79h-2.46l.38-1.55h2.56l-.038-.02zm8.438 5.53-1.523-.914a14.184 14.184 0 0 1 2.918-3.585c1.164-1.03 2.207-1.54 3.13-1.54 1.5 0 2.25.67 2.25 2.02 0 .57-.388 1.93-1.16 4.11-.772 2.18-1.16 3.55-1.16 4.13s.038.95.116 1.12c.08.17.25.25.52.25 1.42 0 2.89-.53 4.4-1.6 1.51-1.07 2.49-2.25 2.94-3.55l1.64-4.78c.17-.48.44-.87.8-1.15.36-.28.71-.42 1.05-.42s.61.11.82.33c.21.22.32.51.32.87s-.07.74-.21 1.13l-1.78 5.2c-.98 3.06-2.5 6.08-4.57 9.05 1.8.187 3.4.507 4.81.96l-.19 1.31c-2.15-.44-4.06-.695-5.72-.773-1.51 1.96-3.06 3.52-4.65 4.68-1.59 1.16-2.97 1.75-4.15 1.75-1.18 0-2.06-.24-2.65-.72-.59-.48-.88-1.13-.88-1.956 0-.823.32-1.578.94-2.26.62-.68 1.46-1.228 2.51-1.648 2.13-.876 4.57-1.376 7.32-1.5.22-.25.75-1.13 1.57-2.638.82-1.508 1.28-2.46 1.34-2.85-2.77 2.34-5.2 3.51-7.31 3.51-.85 0-1.48-.293-1.87-.88-.39-.588-.59-1.31-.59-2.168 0-.856.33-2.33.98-4.42.65-2.09.976-3.27.976-3.56 0-.29-.07-.43-.2-.43s-.28.03-.436.1c-.156.07-.31.18-.456.33l-.41.42s-.26.32-.41.555l-.34.54c-.33.518-.54.86-.634 1.03l-.05-.05zm6.773 12.118a18.17 18.17 0 0 0-3.867.68c-2.53.72-3.797 1.563-3.797 2.53 0 .58.35.868 1.07.868.72 0 1.89-.52 3.51-1.56s2.65-1.877 3.07-2.52h.013zM61.233 8.84h3.798c-.67 1.155-1.7 3.722-3.09 7.698s-2.66 7.977-3.81 12c-1.15 4.022-1.72 6.483-1.72 7.383s.11 1.352.33 1.352c.66 0 1.68-.99 3.07-2.97l.99.94c-.69 1.19-1.43 2.19-2.22 3-1.4 1.44-2.54 2.158-3.42 2.158-1.59 0-2.39-.96-2.39-2.88 0-2.86.95-7.36 2.85-13.52s3.78-11.2 5.64-15.14l-.027-.02zm5.11 26.553c.094 1.797 1.305 2.695 3.634 2.695.86 0 1.754-.246 2.684-.738s1.685-1.074 2.263-1.746l1.008.656c-1.296 2.172-3.366 3.5-6.208 3.984-.626.094-1.23.14-1.807.14-1.688 0-3.094-.558-4.22-1.675-1.124-1.12-1.687-2.48-1.687-4.09 0-1.61.492-3.1 1.477-4.472.984-1.37 2.215-2.43 3.69-3.18s2.936-1.13 4.372-1.13 2.685.33 3.738.98 1.594 1.54 1.616 2.65c.024 1.11-.298 2.06-.968 2.87-.67.8-1.52 1.42-2.55 1.84-2.04.83-4.05 1.24-6.02 1.24l-1-.05-.02.025zm-.14-1.29c1.733-.06 3.128-.34 4.184-.83 1.055-.49 1.79-1.056 2.202-1.687.41-.633.62-1.297.62-1.992 0-.694-.18-1.21-.54-1.547s-.74-.504-1.15-.504c-1 0-1.92.348-2.76 1.043a6.72 6.72 0 0 0-1.91 2.53c-.44.992-.66 1.99-.66 2.99l.013-.002zM87.296 8.84h3.797C90.42 9.994 89.39 12.56 88 16.537s-2.66 7.977-3.81 12-1.724 6.484-1.724 7.383.11 1.35.328 1.35c.656 0 1.68-.992 3.07-2.978l.984.938c-.69 1.188-1.43 2.188-2.23 3-1.41 1.438-2.55 2.155-3.42 2.155-1.6 0-2.39-.96-2.39-2.883 0-2.86.94-7.367 2.84-13.523 1.9-6.157 3.78-11.205 5.64-15.14h.008zm4.98 31.545c-.665 0-1.185-.203-1.56-.61-.377-.406-.563-.964-.563-1.675s.184-1.68.55-2.906c.366-1.226.735-2.34 1.103-3.34s.55-1.668.55-2.004-.107-.504-.327-.504c-.548 0-1.43 1.078-2.648 3.234l-1.57-.914c2.298-3.875 4.406-5.813 6.33-5.813 1.31 0 1.968.828 1.968 2.484 0 .483-.156 1.26-.47 2.32l-1.687 4.827c-.173.453-.26.863-.26 1.23s.142.55.424.55c.53 0 1.508-.982 2.93-2.952l.983.914c-.844 1.563-1.848 2.813-3.012 3.75-1.164.938-2.077 1.41-2.743 1.41zm6.667-21.457c0 .633-.21 1.207-.633 1.723-.422.517-.99.78-1.71.78s-1.25-.21-1.61-.64-.54-.97-.54-1.63c0-.66.23-1.23.67-1.74.44-.51 1.02-.76 1.72-.76s1.23.23 1.58.67.53.99.53 1.62l-.007-.022zm6.87 14.496c3.265-5.047 6.193-7.57 8.788-7.57.876 0 1.53.266 1.97.797.438.532.656 1.21.656 2.02s-.363 2.22-1.09 4.22c-.728 2-1.09 3.24-1.09 3.722 0 .48.116.72.352.72.312 0 .772-.32 1.383-.97.61-.65 1.15-1.33 1.62-2.05l.99.94c-.94 1.71-1.96 2.99-3.08 3.86-1.12.868-2.02 1.3-2.72 1.3s-1.23-.23-1.62-.69c-.39-.46-.58-1.09-.58-1.88s.32-2.09.95-3.9c.63-1.81.95-3.08.95-3.84 0-.76-.25-1.14-.77-1.14-.59 0-1.29.38-2.11 1.14-.82.76-1.6 1.69-2.36 2.78-1.22 1.75-2.46 3.77-3.73 6.05l-.63 1.127h-3.3l.73-2.202c1.36-4.063 2.04-6.474 2.04-7.23s-.12-1.14-.37-1.14c-.45 0-.99.54-1.61 1.618-.14.25-.26.45-.35.6s-.2.33-.315.54c-.12.21-.19.34-.226.388l-1.57-.912c1.22-1.988 2.336-3.45 3.35-4.4 1.014-.95 2.06-1.416 3.12-1.416.482 0 .9.2 1.253.61.353.41.527.892.527 1.47s-.05 1.143-.14 1.7c-.09.558-.19 1.014-.298 1.38l-.4 1.42c-.162.578-.252.906-.27.983l-.05-.046zm18-7.054c1.608-5 3.25-9.188 4.92-12.563l2.907.234c-.173.5-.595 1.71-1.267 3.61-1.453 4.21-2.39 7.11-2.813 8.72h3.68l-.37 1.55h-3.79c-1.44 4.44-2.148 7.14-2.148 8.102 0 .96.1 1.44.3 1.44.2 0 .37-.04.53-.11.42-.23 1.33-1.37 2.72-3.42l.96.87c-1.05 1.91-2.12 3.32-3.23 4.23s-2.02 1.368-2.74 1.368c-.72 0-1.26-.25-1.63-.75s-.55-1.14-.55-1.92c0-1.98.7-5.25 2.09-9.79h-2.46l.378-1.55h2.557l-.045-.02z"/></g></svg>