<?xml version="1.0" encoding="utf-8"?>
<!-- Generator: Adobe Illustrator 16.0.4, SVG Export Plug-In . SVG Version: 6.00 Build 0)  -->
<!DOCTYPE svg PUBLIC "-//W3C//DTD SVG 1.1//EN" "http://www.w3.org/Graphics/SVG/1.1/DTD/svg11.dtd">
<svg version="1.1" id="Layer_1" xmlns="http://www.w3.org/2000/svg" xmlns:xlink="http://www.w3.org/1999/xlink" x="0px" y="0px"
	 width="124.43px" height="41.602px" viewBox="0 0 124.43 41.602" enable-background="new 0 0 124.43 41.602" xml:space="preserve">
<path d="M2.848,31.008c-1.022-0.36-1.754-0.785-2.189-1.277C0.222,29.24,0,28.7,0,28.11c0-0.59,0.164-1.086,0.492-1.477
	c0.327-0.391,0.762-0.586,1.3-0.586s1.017,0.16,1.43,0.479c0.413,0.32,0.622,0.773,0.622,1.36s-0.36,1.073-1.078,1.464
	c0.594,0.521,1.5,0.78,2.72,0.78c2.641,0,3.96-0.75,3.96-2.25c0-0.94-0.836-1.69-2.508-2.25c-0.688-0.23-1.38-0.48-2.074-0.75
	c-0.693-0.271-1.3-0.65-1.815-1.17c-0.516-0.521-0.798-1.141-0.845-1.87c0-1.06,0.352-1.96,1.055-2.69
	c1.328-1.409,3.312-2.109,5.953-2.109c1.3,0,2.45,0.25,3.45,0.74c1,0.489,1.5,1.13,1.5,1.909c0,0.78-0.2,1.341-0.601,1.69
	c-0.399,0.35-0.859,0.52-1.39,0.52s-0.98-0.14-1.351-0.43c-0.369-0.29-0.55-0.689-0.55-1.2c0-0.51,0.311-0.96,0.92-1.34
	c-0.37-0.26-1.02-0.39-1.939-0.39s-1.75,0.13-2.48,0.41c-0.729,0.279-1.1,0.64-1.1,1.109c0,0.471,0.27,0.86,0.81,1.17
	c0.54,0.311,1.19,0.601,1.96,0.87c0.771,0.271,1.53,0.57,2.301,0.91c0.77,0.34,1.42,0.836,1.96,1.477
	c0.54,0.642,0.81,1.431,0.81,2.364c0,0.935-0.38,1.79-1.15,2.558c-1.449,1.449-3.439,2.18-5.949,2.18c-1.32,0-2.5-0.18-3.521-0.54
	L2.848,31.008z M19.242,17.531c1.609-5,3.25-9.188,4.922-12.562l2.905,0.234c-0.172,0.5-0.594,1.703-1.266,3.609
	c-1.453,4.202-2.39,7.108-2.812,8.719h3.68l-0.37,1.547h-3.8c-1.431,4.438-2.15,7.137-2.15,8.098s0.101,1.44,0.3,1.44
	c0.2,0,0.37-0.038,0.53-0.116c0.42-0.24,1.33-1.38,2.72-3.431l0.96,0.86c-1.04,1.9-2.119,3.311-3.229,4.23s-2.021,1.369-2.74,1.369
	s-1.26-0.25-1.63-0.75s-0.55-1.14-0.55-1.92c0-1.989,0.7-5.25,2.09-9.8h-2.46l0.38-1.55h2.56L19.242,17.531z M27.68,23.063
	l-1.522-0.914c0.779-1.359,1.754-2.56,2.918-3.59c1.163-1.03,2.207-1.55,3.13-1.55c1.5,0,2.25,0.67,2.25,2.01
	c0,0.561-0.389,1.931-1.16,4.101c-0.772,2.17-1.16,3.54-1.16,4.12c0,0.579,0.038,0.949,0.116,1.109s0.25,0.24,0.52,0.24
	c1.42,0,2.891-0.54,4.4-1.61c1.51-1.069,2.49-2.26,2.939-3.55l1.641-4.78c0.17-0.489,0.439-0.87,0.8-1.149
	c0.36-0.28,0.71-0.431,1.05-0.431s0.61,0.11,0.82,0.33c0.21,0.221,0.32,0.511,0.32,0.86s-0.07,0.74-0.211,1.13l-1.779,5.21
	c-0.98,3.061-2.5,6.08-4.57,9.04c1.8,0.19,3.4,0.51,4.811,0.96l-0.19,1.311c-2.15-0.44-4.06-0.697-5.72-0.775
	c-1.511,1.95-3.061,3.51-4.65,4.68s-2.97,1.74-4.15,1.74c-1.18,0-2.06-0.24-2.649-0.716c-0.59-0.477-0.88-1.13-0.88-1.96
	s0.319-1.584,0.939-2.264c0.62-0.681,1.46-1.23,2.511-1.65c2.13-0.872,4.569-1.372,7.319-1.5c0.221-0.25,0.75-1.13,1.57-2.634
	s1.28-2.45,1.34-2.84c-2.77,2.348-5.2,3.518-7.31,3.518c-0.86,0-1.48-0.29-1.87-0.88c-0.391-0.59-0.59-1.311-0.59-2.163
	c0-0.854,0.326-2.33,0.976-4.42s0.973-3.274,0.973-3.564s-0.069-0.43-0.199-0.43c-0.131,0-0.28,0.03-0.438,0.1
	c-0.158,0.07-0.31,0.181-0.45,0.33c-0.14,0.15-0.279,0.29-0.41,0.42c-0.13,0.131-0.26,0.317-0.409,0.551l-0.341,0.54
	c-0.329,0.51-0.54,0.859-0.63,1.029L27.68,23.063z M34.453,35.18c-1.267,0.078-2.556,0.305-3.867,0.68
	c-2.53,0.721-3.797,1.563-3.797,2.53c0,0.58,0.35,0.868,1.069,0.868c0.721,0,1.891-0.521,3.511-1.56
	c1.619-1.04,2.649-1.879,3.069-2.519H34.453z M54.023,0h3.797c-0.672,1.156-1.702,3.723-3.094,7.7c-1.391,3.977-2.66,7.976-3.81,12
	c-1.15,4.023-1.723,6.482-1.723,7.382c0,0.898,0.11,1.348,0.328,1.348c0.656,0,1.681-0.992,3.07-2.977l0.984,0.938
	c-0.688,1.19-1.431,2.19-2.228,3c-1.41,1.44-2.55,2.16-3.43,2.16c-1.601,0-2.391-0.96-2.391-2.88c0-2.86,0.95-7.36,2.841-13.521
	C50.259,8.991,52.16,3.94,54.02,0H54.023z M59.133,26.555c0.094,1.797,1.305,2.695,3.633,2.695c0.86,0,1.754-0.246,2.685-0.738
	c0.93-0.492,1.684-1.074,2.262-1.746l1.008,0.656c-1.297,2.172-3.367,3.5-6.21,3.984c-0.626,0.094-1.228,0.14-1.806,0.14
	c-1.688,0-3.095-0.559-4.221-1.675c-1.126-1.117-1.687-2.48-1.687-4.09c0-1.61,0.492-3.091,1.477-4.461
	c0.985-1.369,2.215-2.42,3.69-3.17c1.475-0.75,2.935-1.119,4.372-1.119c1.437,0,2.684,0.329,3.738,0.989
	c1.054,0.66,1.594,1.54,1.616,2.65c0.023,1.11-0.3,2.07-0.97,2.87s-1.52,1.42-2.55,1.84c-2.04,0.83-4.05,1.24-6.021,1.24l-1-0.04
	L59.133,26.555z M58.993,25.265c1.732-0.062,3.128-0.34,4.183-0.83s1.79-1.056,2.203-1.689c0.413-0.635,0.62-1.296,0.62-1.99
	s-0.181-1.212-0.54-1.548c-0.36-0.336-0.74-0.504-1.15-0.504c-1,0-1.92,0.348-2.76,1.043c-0.84,0.694-1.48,1.54-1.91,2.529
	c-0.43,0.99-0.66,1.99-0.66,2.99L58.993,25.265z M80.086,0h3.797c-0.672,1.156-1.703,3.723-3.094,7.7
	c-1.392,3.977-2.66,7.976-3.811,12c-1.149,4.023-1.729,6.482-1.729,7.382c0,0.898,0.109,1.348,0.33,1.348
	c0.649,0,1.68-0.992,3.069-2.977l0.98,0.938c-0.69,1.19-1.43,2.19-2.23,3c-1.41,1.44-2.55,2.16-3.43,2.16
	c-1.6,0-2.39-0.96-2.39-2.88c0-2.86,0.949-7.36,2.84-13.521C76.309,8.991,78.23,3.94,80.09,0H80.086z M85.066,31.547
	c-0.664,0-1.184-0.203-1.56-0.61c-0.376-0.406-0.562-0.964-0.562-1.675s0.185-1.68,0.551-2.906c0.365-1.226,0.734-2.34,1.103-3.34
	s0.55-1.668,0.55-2.004s-0.107-0.504-0.327-0.504c-0.547,0-1.43,1.078-2.647,3.234l-1.57-0.914c2.297-3.875,4.406-5.813,6.328-5.813
	c1.313,0,1.97,0.828,1.97,2.484c0,0.479-0.156,1.25-0.47,2.319l-1.688,4.82c-0.173,0.45-0.259,0.86-0.259,1.23
	s0.141,0.55,0.422,0.55c0.53,0,1.509-0.99,2.931-2.95l0.983,0.91c-0.844,1.56-1.848,2.81-3.012,3.75
	c-1.164,0.939-2.078,1.399-2.742,1.399V31.547z M91.734,10.09c0,0.633-0.21,1.207-0.633,1.723c-0.423,0.517-0.99,0.773-1.71,0.773
	s-1.25-0.215-1.61-0.646c-0.359-0.43-0.539-0.97-0.539-1.62c0-0.649,0.229-1.239,0.67-1.739c0.439-0.5,1.02-0.761,1.72-0.761
	s1.229,0.23,1.58,0.671c0.35,0.439,0.53,0.989,0.53,1.619L91.734,10.09z M98.602,24.586c3.267-5.047,6.195-7.57,8.79-7.57
	c0.874,0,1.53,0.267,1.968,0.797c0.438,0.531,0.656,1.203,0.656,2.017c0,0.812-0.363,2.21-1.09,4.21s-1.09,3.239-1.09,3.71
	c0,0.47,0.117,0.71,0.352,0.71c0.313,0,0.773-0.33,1.383-0.98c0.61-0.649,1.15-1.34,1.62-2.05l0.99,0.93
	c-0.939,1.7-1.96,2.99-3.08,3.851c-1.12,0.859-2.02,1.3-2.72,1.3s-1.23-0.23-1.62-0.69s-0.58-1.09-0.58-1.89s0.32-2.1,0.95-3.91
	c0.63-1.81,0.95-3.09,0.95-3.85s-0.25-1.141-0.771-1.141c-0.59,0-1.29,0.381-2.109,1.141c-0.82,0.76-1.601,1.68-2.36,2.78
	c-1.22,1.75-2.46,3.76-3.73,6.04l-0.63,1.126h-3.31l0.729-2.2c1.36-4.064,2.04-6.475,2.04-7.23s-0.12-1.13-0.37-1.13
	c-0.449,0-0.989,0.54-1.609,1.62c-0.141,0.25-0.26,0.45-0.351,0.6c-0.09,0.15-0.199,0.325-0.314,0.54
	c-0.115,0.216-0.19,0.341-0.222,0.384l-1.57-0.915c1.22-1.984,2.34-3.45,3.359-4.396C95.884,17.443,96.88,17,97.945,17
	c0.483,0,0.9,0.202,1.254,0.609c0.353,0.408,0.52,0.896,0.52,1.476s-0.05,1.146-0.14,1.7c-0.091,0.554-0.19,1.016-0.301,1.383
	c-0.109,0.367-0.229,0.84-0.399,1.42s-0.25,0.906-0.26,0.984L98.602,24.586z M116.602,17.531c1.61-5,3.25-9.188,4.922-12.562
	l2.906,0.234c-0.172,0.5-0.594,1.703-1.266,3.609c-1.453,4.202-2.391,7.108-2.813,8.719h3.68l-0.369,1.547h-3.79
	c-1.44,4.438-2.15,7.137-2.15,8.098s0.1,1.44,0.3,1.44s0.37-0.038,0.53-0.116c0.42-0.24,1.33-1.38,2.72-3.431l0.96,0.86
	c-1.05,1.9-2.12,3.311-3.229,4.23c-1.11,0.92-2.021,1.369-2.74,1.369s-1.26-0.25-1.63-0.75s-0.55-1.14-0.55-1.92
	c0-1.989,0.699-5.25,2.09-9.8h-2.46l0.38-1.55h2.558L116.602,17.531z"/>
</svg>
