<?xml version="1.0" encoding="utf-8"?>
<!-- Generator: Adobe Illustrator 16.0.4, SVG Export Plug-In . SVG Version: 6.00 Build 0)  -->
<!DOCTYPE svg PUBLIC "-//W3C//DTD SVG 1.1//EN" "http://www.w3.org/Graphics/SVG/1.1/DTD/svg11.dtd">
<svg version="1.1" id="Layer_1" xmlns="http://www.w3.org/2000/svg" xmlns:xlink="http://www.w3.org/1999/xlink" x="0px" y="0px"
	 width="512px" height="512px" viewBox="0 0 512 512" enable-background="new 0 0 512 512" xml:space="preserve">
<rect width="512" height="512"/>
<path fill="#FFFFFF" d="M258.805,461.054c45.057-161.12,43.75-161.848,76.319-276.729l7.833,4.522
	c4.255,2.458,7.738,0.448,7.738-4.455v-54.786c8.643-30.271,15.416-53.66,17.399-60.693h35.287L462,123.217l-38.498,33.27
	l29.11,31.473l-191.86,273.094C259.814,462.596,258.508,462.243,258.805,461.054z"/>
<g>
	<path fill="#FFFFFF" d="M279.766,113.776c1.732,0,3.147,0.958,3.147,2.147v28.078c0,1.185-1.415,2.148-3.147,2.148H232.37
		c-1.742,0-3.153-0.958-3.153-2.148v-28.078c0-1.185,1.411-2.147,3.153-2.147H279.766"/>
	<path fill="#FFFFFF" d="M338.265,82.688l-52.141,30.1c0.606,0.921,0.974,1.98,0.974,3.136v28.078c0,1.457-0.564,2.771-1.496,3.831
		l52.663,30.401c3.589,2.073,6.535,0.377,6.535-3.764V86.456C344.8,82.311,341.856,80.62,338.265,82.688z"/>
	<path fill="#FFFFFF" d="M225.029,144.001v-28.078c0-1.151,0.369-2.21,0.967-3.131l-52.14-30.104
		c-3.588-2.068-6.531-0.376-6.531,3.768v88.013c0,4.141,2.939,5.84,6.531,3.764l52.659-30.405
		C225.59,146.769,225.029,145.458,225.029,144.001z"/>
</g>
<path fill="#FFFFFF" d="M251.248,461.054h1.947c-45.051-161.12-43.753-161.848-76.319-276.729l-7.834,4.522
	c-4.253,2.458-7.737,0.448-7.737-4.455v-54.786c-8.646-30.271-15.416-53.66-17.405-60.693h-35.283L50,123.217l38.494,33.27
	L59.383,187.96L251.248,461.054z"/>
<circle fill="#FFFFFF" cx="254.572" cy="190.538" r="14.231"/>
<circle fill="#FFFFFF" cx="254.572" cy="275.156" r="14.231"/>
<circle fill="#FFFFFF" cx="254.572" cy="359.785" r="14.23"/>
</svg>
