<?xml version="1.0" encoding="utf-8"?>
<!-- Generator: Adobe Illustrator 16.0.4, SVG Export Plug-In . SVG Version: 6.00 Build 0)  -->
<!DOCTYPE svg PUBLIC "-//W3C//DTD SVG 1.1//EN" "http://www.w3.org/Graphics/SVG/1.1/DTD/svg11.dtd">
<svg version="1.1" id="Layer_1" xmlns="http://www.w3.org/2000/svg" xmlns:xlink="http://www.w3.org/1999/xlink" x="0px" y="0px"
	 width="138px" height="56px" viewBox="0 0 138 56" enable-background="new 0 0 138 56" xml:space="preserve">
<path d="M0,0h138v56H0V0z"/>
<path fill="#FFFFFF" d="M10.058,39.846c-1.023-0.359-1.754-0.785-2.19-1.277c-0.44-0.5-0.658-1.039-0.658-1.629
	s0.164-1.09,0.492-1.48c0.328-0.391,0.762-0.59,1.3-0.59s1.017,0.16,1.43,0.48c0.413,0.319,0.622,0.77,0.622,1.359
	s-0.36,1.07-1.078,1.46c0.594,0.511,1.5,0.771,2.72,0.771c2.64,0,3.96-0.75,3.96-2.25c0-0.94-0.836-1.69-2.508-2.25
	c-0.688-0.24-1.38-0.49-2.074-0.75c-0.694-0.26-1.3-0.66-1.816-1.17c-0.516-0.511-0.797-1.141-0.844-1.881
	c0-1.07,0.352-1.959,1.055-2.7c1.32-1.41,3.31-2.11,5.95-2.11c1.29,0,2.44,0.24,3.44,0.74s1.5,1.13,1.5,1.91s-0.2,1.339-0.6,1.68
	c-0.4,0.34-0.87,0.51-1.4,0.51c-0.53,0-0.98-0.14-1.35-0.43c-0.37-0.29-0.55-0.69-0.55-1.21c0-0.521,0.3-0.96,0.91-1.34
	c-0.38-0.27-1.03-0.4-1.95-0.4s-1.75,0.14-2.49,0.41c-0.74,0.27-1.11,0.64-1.11,1.109c0,0.471,0.27,0.86,0.81,1.17
	c0.54,0.311,1.19,0.604,1.95,0.871c0.76,0.266,1.53,0.569,2.3,0.914c0.77,0.344,1.42,0.836,1.96,1.477s0.81,1.43,0.81,2.369
	c0,0.94-0.39,1.791-1.15,2.557c-1.45,1.45-3.44,2.18-5.95,2.18c-1.33,0-2.51-0.18-3.53-0.539L10.058,39.846z M26.452,26.37
	c1.61-5,3.25-9.188,4.922-12.563l2.906,0.234c-0.172,0.5-0.594,1.71-1.266,3.61c-1.453,4.21-2.39,7.11-2.813,8.72h3.68l-0.37,1.55
	h-3.8c-1.43,4.44-2.15,7.14-2.15,8.101c0,0.959,0.1,1.439,0.3,1.439c0.2,0,0.37-0.04,0.53-0.109c0.42-0.23,1.33-1.371,2.72-3.42
	l0.96,0.869c-1.04,1.91-2.12,3.32-3.23,4.23c-1.11,0.91-2.02,1.369-2.74,1.369c-0.72,0-1.26-0.25-1.63-0.75
	c-0.37-0.5-0.55-1.14-0.55-1.92c0-1.979,0.7-5.25,2.09-9.79h-2.46l0.38-1.55h2.56L26.452,26.37z M34.89,31.9l-1.523-0.914
	c0.78-1.359,1.754-2.554,2.918-3.585c1.164-1.031,2.207-1.54,3.13-1.54c1.5,0,2.25,0.67,2.25,2.02c0,0.57-0.388,1.93-1.16,4.11
	c-0.772,2.18-1.16,3.55-1.16,4.13s0.038,0.949,0.116,1.12c0.078,0.17,0.25,0.25,0.52,0.25c1.42,0,2.89-0.53,4.4-1.601
	c1.51-1.07,2.49-2.25,2.94-3.55l1.64-4.78c0.17-0.48,0.44-0.87,0.8-1.15c0.36-0.28,0.71-0.42,1.05-0.42s0.61,0.11,0.82,0.33
	c0.21,0.22,0.32,0.51,0.32,0.87s-0.07,0.74-0.21,1.13l-1.78,5.201c-0.98,3.06-2.5,6.08-4.57,9.049c1.8,0.187,3.4,0.507,4.81,0.961
	l-0.19,1.31c-2.15-0.44-4.06-0.696-5.72-0.774c-1.51,1.959-3.06,3.52-4.65,4.68c-1.59,1.16-2.97,1.75-4.15,1.75
	c-1.18,0-2.06-0.24-2.65-0.721c-0.59-0.479-0.88-1.129-0.88-1.955c0-0.824,0.32-1.579,0.94-2.26c0.62-0.68,1.46-1.229,2.51-1.649
	c2.13-0.876,4.57-1.376,7.32-1.5c0.22-0.25,0.75-1.13,1.57-2.638c0.82-1.508,1.28-2.461,1.34-2.851
	c-2.77,2.341-5.2,3.511-7.31,3.511c-0.85,0-1.48-0.293-1.87-0.881c-0.39-0.587-0.59-1.31-0.59-2.167c0-0.856,0.33-2.329,0.98-4.42
	c0.65-2.09,0.975-3.271,0.975-3.56c0-0.29-0.07-0.43-0.2-0.43s-0.28,0.029-0.436,0.1c-0.156,0.07-0.31,0.18-0.456,0.33l-0.41,0.42
	c0,0-0.26,0.32-0.41,0.555l-0.34,0.54c-0.33,0.517-0.54,0.86-0.634,1.03L34.89,31.9z M41.663,44.018
	c-1.266,0.078-2.555,0.306-3.867,0.681c-2.53,0.72-3.797,1.562-3.797,2.53c0,0.58,0.35,0.867,1.07,0.867c0.72,0,1.89-0.52,3.51-1.56
	s2.65-1.877,3.07-2.519H41.663z M61.233,8.84h3.798c-0.67,1.155-1.7,3.722-3.09,7.698s-2.66,7.977-3.81,12
	c-1.15,4.022-1.72,6.483-1.72,7.383s0.11,1.351,0.33,1.351c0.66,0,1.68-0.99,3.07-2.971l0.99,0.94c-0.69,1.19-1.43,2.19-2.22,3
	c-1.4,1.44-2.54,2.159-3.42,2.159c-1.59,0-2.39-0.959-2.39-2.879c0-2.86,0.95-7.36,2.85-13.521s3.78-11.2,5.64-15.14L61.233,8.84z
	 M66.343,35.393c0.094,1.797,1.305,2.695,3.634,2.695c0.859,0,1.754-0.246,2.684-0.738s1.684-1.074,2.262-1.746l1.008,0.656
	c-1.297,2.172-3.367,3.5-6.209,3.984c-0.626,0.094-1.229,0.14-1.807,0.14c-1.688,0-3.094-0.558-4.22-1.675
	c-1.124-1.12-1.687-2.48-1.687-4.09c0-1.61,0.492-3.1,1.477-4.471c0.984-1.369,2.215-2.43,3.69-3.18
	c1.475-0.75,2.936-1.13,4.372-1.13s2.685,0.33,3.738,0.98s1.594,1.54,1.616,2.65c0.023,1.11-0.299,2.061-0.969,2.87
	c-0.67,0.8-1.521,1.42-2.551,1.841c-2.04,0.829-4.05,1.239-6.02,1.239l-1-0.05L66.343,35.393z M66.203,34.104
	c1.733-0.062,3.128-0.34,4.184-0.83c1.055-0.49,1.789-1.057,2.202-1.688c0.41-0.633,0.62-1.297,0.62-1.992
	c0-0.694-0.18-1.21-0.54-1.547s-0.739-0.504-1.149-0.504c-1,0-1.92,0.348-2.761,1.043c-0.84,0.694-1.48,1.54-1.91,2.53
	c-0.44,0.992-0.66,1.99-0.66,2.99L66.203,34.104z M87.296,8.84h3.797C90.42,9.994,89.391,12.56,88,16.537s-2.66,7.977-3.811,12
	c-1.149,4.023-1.723,6.484-1.723,7.383s0.11,1.35,0.328,1.35c0.656,0,1.68-0.992,3.07-2.978l0.984,0.938
	c-0.69,1.188-1.431,2.188-2.23,3c-1.41,1.438-2.551,2.155-3.42,2.155c-1.6,0-2.391-0.96-2.391-2.883c0-2.86,0.94-7.367,2.84-13.523
	c1.9-6.156,3.781-11.204,5.641-15.14H87.296z M92.275,40.385c-0.664,0-1.184-0.203-1.56-0.609c-0.376-0.407-0.562-0.965-0.562-1.676
	s0.184-1.68,0.55-2.906c0.366-1.226,0.735-2.34,1.103-3.34s0.551-1.668,0.551-2.004s-0.108-0.504-0.328-0.504
	c-0.547,0-1.43,1.078-2.647,3.234l-1.569-0.914c2.297-3.875,4.405-5.813,6.328-5.813c1.312,0,1.969,0.828,1.969,2.484
	c0,0.483-0.156,1.259-0.469,2.32l-1.688,4.827c-0.173,0.453-0.259,0.863-0.259,1.23s0.141,0.551,0.423,0.551
	c0.53,0,1.508-0.983,2.93-2.953l0.983,0.914c-0.844,1.563-1.848,2.813-3.012,3.75C93.854,39.914,92.941,40.385,92.275,40.385z
	 M98.943,18.928c0,0.633-0.209,1.207-0.633,1.723c-0.422,0.516-0.99,0.78-1.709,0.78c-0.721,0-1.25-0.21-1.61-0.64
	s-0.54-0.97-0.54-1.63c0-0.66,0.23-1.23,0.67-1.74c0.439-0.51,1.02-0.76,1.72-0.76s1.229,0.23,1.58,0.67s0.53,0.99,0.53,1.62
	L98.943,18.928z M105.812,33.424c3.266-5.047,6.194-7.57,8.789-7.57c0.875,0,1.53,0.266,1.969,0.797
	c0.438,0.531,0.656,1.21,0.656,2.02c0,0.81-0.363,2.22-1.09,4.22c-0.728,2-1.091,3.24-1.091,3.721c0,0.479,0.117,0.72,0.353,0.72
	c0.312,0,0.772-0.32,1.383-0.97c0.609-0.65,1.15-1.33,1.619-2.051l0.99,0.94c-0.939,1.71-1.959,2.99-3.08,3.86
	c-1.119,0.869-2.02,1.3-2.72,1.3s-1.229-0.229-1.62-0.69c-0.39-0.46-0.58-1.09-0.58-1.88s0.32-2.09,0.95-3.899
	c0.63-1.811,0.95-3.08,0.95-3.84c0-0.761-0.25-1.141-0.77-1.141c-0.59,0-1.291,0.38-2.11,1.141c-0.82,0.76-1.601,1.689-2.36,2.779
	c-1.22,1.75-2.46,3.77-3.73,6.051l-0.629,1.127h-3.301l0.73-2.201c1.359-4.063,2.04-6.474,2.04-7.229s-0.12-1.14-0.37-1.14
	c-0.45,0-0.99,0.539-1.609,1.617c-0.141,0.25-0.261,0.451-0.351,0.601s-0.2,0.33-0.315,0.54c-0.119,0.21-0.189,0.34-0.226,0.387
	l-1.569-0.912c1.219-1.988,2.336-3.451,3.35-4.401c1.014-0.95,2.06-1.415,3.119-1.415c0.483,0,0.9,0.2,1.254,0.61
	c0.353,0.41,0.527,0.892,0.527,1.47s-0.051,1.143-0.141,1.701c-0.09,0.557-0.189,1.013-0.297,1.379l-0.4,1.42
	c-0.162,0.578-0.252,0.906-0.27,0.983L105.812,33.424z M123.812,26.37c1.609-5,3.25-9.188,4.922-12.563l2.906,0.234
	c-0.173,0.5-0.595,1.71-1.267,3.61c-1.453,4.21-2.39,7.11-2.813,8.72h3.681l-0.37,1.55h-3.79c-1.44,4.44-2.149,7.14-2.149,8.101
	c0,0.959,0.1,1.439,0.299,1.439c0.201,0,0.371-0.04,0.53-0.109c0.421-0.23,1.33-1.371,2.72-3.42l0.961,0.869
	c-1.051,1.91-2.121,3.32-3.23,4.23s-2.02,1.369-2.74,1.369c-0.72,0-1.26-0.25-1.63-0.75s-0.55-1.14-0.55-1.92
	c0-1.979,0.7-5.25,2.09-9.79h-2.46l0.378-1.55h2.557L123.812,26.37z"/>
</svg>
