<svg xmlns="http://www.w3.org/2000/svg" width="124.43" height="41.602" viewBox="0 0 124.43 41.602"><path d="M2.848 31.008c-1.022-.36-1.754-.785-2.19-1.277C.223 29.24 0 28.7 0 28.11c0-.59.164-1.086.492-1.477.327-.39.762-.586 1.3-.586s1.017.16 1.43.48c.413.32.622.772.622 1.36s-.36 1.072-1.078 1.463c.594.52 1.5.78 2.72.78 2.64 0 3.96-.75 3.96-2.25 0-.94-.836-1.69-2.508-2.25-.688-.23-1.38-.48-2.074-.75-.693-.27-1.3-.65-1.815-1.17-.517-.52-.8-1.14-.846-1.87 0-1.06.352-1.96 1.055-2.69 1.327-1.41 3.31-2.11 5.952-2.11 1.3 0 2.45.25 3.45.74s1.5 1.13 1.5 1.91-.2 1.34-.6 1.69c-.4.35-.86.52-1.39.52s-.98-.14-1.352-.43c-.37-.29-.55-.69-.55-1.2s.31-.96.92-1.34c-.37-.26-1.02-.39-1.94-.39s-1.75.13-2.48.41c-.728.28-1.1.64-1.1 1.11 0 .47.27.86.81 1.17.54.31 1.19.6 1.96.87.772.27 1.53.57 2.302.91.77.34 1.42.835 1.96 1.476.54.642.81 1.43.81 2.364 0 .935-.38 1.79-1.15 2.558-1.45 1.45-3.44 2.18-5.95 2.18-1.32 0-2.5-.18-3.52-.54l-.044-.04zM19.242 17.53c1.61-5 3.25-9.187 4.922-12.56l2.905.233c-.173.5-.595 1.703-1.267 3.61-1.453 4.2-2.39 7.107-2.812 8.718h3.68l-.37 1.548h-3.8c-1.43 4.438-2.15 7.137-2.15 8.098s.102 1.44.3 1.44c.2 0 .37-.038.53-.116.42-.24 1.33-1.38 2.72-3.43l.96.86c-1.04 1.9-2.118 3.31-3.228 4.23s-2.02 1.368-2.74 1.368-1.26-.25-1.63-.75-.55-1.14-.55-1.92c0-1.99.7-5.25 2.09-9.8h-2.46l.38-1.55h2.56l-.04.023zm8.438 5.533l-1.522-.914c.78-1.36 1.754-2.56 2.918-3.59 1.163-1.03 2.207-1.55 3.13-1.55 1.5 0 2.25.67 2.25 2.01 0 .56-.39 1.93-1.16 4.1-.772 2.17-1.16 3.54-1.16 4.12 0 .58.038.95.116 1.11s.25.24.52.24c1.42 0 2.89-.54 4.4-1.61 1.51-1.07 2.49-2.26 2.94-3.55l1.64-4.78c.17-.49.44-.87.8-1.15.36-.28.71-.43 1.05-.43s.61.11.82.33c.21.22.32.51.32.86s-.07.74-.21 1.13l-1.78 5.21c-.98 3.06-2.5 6.08-4.57 9.04 1.8.19 3.4.51 4.81.96l-.19 1.31c-2.15-.44-4.06-.697-5.72-.775-1.51 1.95-3.06 3.51-4.65 4.68s-2.97 1.74-4.15 1.74c-1.18 0-2.06-.24-2.648-.716-.59-.478-.88-1.13-.88-1.96s.32-1.585.94-2.265c.62-.68 1.46-1.23 2.51-1.65 2.13-.872 4.57-1.372 7.32-1.5.22-.25.75-1.13 1.57-2.634s1.28-2.45 1.34-2.84c-2.77 2.35-5.2 3.52-7.31 3.52-.86 0-1.48-.29-1.87-.88-.392-.59-.59-1.312-.59-2.164 0-.854.325-2.33.975-4.42s.972-3.274.972-3.564-.07-.43-.2-.43-.28.03-.437.1c-.158.07-.31.18-.45.33-.14.15-.28.29-.41.42-.13.13-.26.317-.41.55l-.34.54c-.33.51-.54.86-.63 1.03l-.055.04zm6.773 12.117c-1.267.078-2.556.305-3.867.68-2.53.72-3.797 1.563-3.797 2.53 0 .58.35.868 1.068.868.72 0 1.89-.52 3.51-1.56 1.62-1.04 2.65-1.88 3.07-2.52h.015zM54.023 0h3.797c-.672 1.156-1.702 3.723-3.094 7.7-1.39 3.977-2.66 7.976-3.81 12-1.15 4.023-1.723 6.482-1.723 7.382 0 .898.11 1.348.328 1.348.657 0 1.682-.992 3.07-2.977l.985.938c-.688 1.19-1.43 2.19-2.228 3-1.41 1.44-2.55 2.16-3.43 2.16-1.6 0-2.39-.96-2.39-2.88 0-2.86.95-7.36 2.84-13.52C50.26 8.99 52.16 3.94 54.02 0h.003zm5.11 26.555c.094 1.797 1.305 2.695 3.633 2.695.86 0 1.754-.246 2.685-.738.93-.492 1.685-1.074 2.263-1.746l1.008.656c-1.296 2.172-3.366 3.5-6.21 3.984-.625.094-1.227.14-1.805.14-1.688 0-3.095-.56-4.22-1.675-1.127-1.116-1.688-2.48-1.688-4.09 0-1.61.492-3.09 1.477-4.46.985-1.37 2.215-2.42 3.69-3.17s2.935-1.12 4.372-1.12c1.437 0 2.684.33 3.738.99 1.054.66 1.594 1.54 1.616 2.65.023 1.11-.3 2.07-.97 2.87s-1.52 1.42-2.55 1.84c-2.04.83-4.05 1.24-6.02 1.24l-1-.04-.017-.025zm-.14-1.29c1.732-.062 3.128-.34 4.183-.83s1.79-1.056 2.203-1.69c.412-.634.62-1.295.62-1.99s-.182-1.21-.54-1.547c-.36-.336-.74-.504-1.15-.504-1 0-1.92.348-2.76 1.043-.84.694-1.48 1.54-1.91 2.53-.43.99-.66 1.99-.66 2.99l.013-.002zM80.086 0h3.797c-.672 1.156-1.703 3.723-3.094 7.7-1.393 3.977-2.66 7.976-3.812 12-1.15 4.023-1.73 6.482-1.73 7.382 0 .898.11 1.348.33 1.348.65 0 1.68-.992 3.07-2.977l.98.938c-.69 1.19-1.43 2.19-2.23 3-1.41 1.44-2.55 2.16-3.43 2.16-1.6 0-2.39-.96-2.39-2.88 0-2.86.95-7.36 2.84-13.52C76.308 8.99 78.23 3.94 80.09 0h-.004zm4.98 31.547c-.664 0-1.184-.203-1.56-.61-.376-.406-.562-.964-.562-1.675s.185-1.68.55-2.906c.366-1.226.735-2.34 1.104-3.34s.55-1.668.55-2.004-.107-.504-.327-.504c-.546 0-1.43 1.078-2.646 3.234l-1.57-.914c2.297-3.875 4.406-5.813 6.328-5.813 1.313 0 1.97.828 1.97 2.484 0 .478-.156 1.25-.47 2.318l-1.688 4.82c-.173.45-.26.86-.26 1.23s.142.55.423.55c.53 0 1.51-.99 2.93-2.95l.984.91c-.843 1.56-1.847 2.81-3.01 3.75-1.165.94-2.08 1.4-2.743 1.4v.02zm6.668-21.457c0 .633-.21 1.207-.633 1.723-.422.517-.99.773-1.71.773s-1.25-.215-1.61-.646c-.358-.43-.538-.97-.538-1.62 0-.65.23-1.24.67-1.74.44-.5 1.02-.76 1.72-.76s1.23.23 1.58.67c.35.44.53.99.53 1.62l-.008-.02zm6.868 14.496c3.267-5.047 6.195-7.57 8.79-7.57.874 0 1.53.267 1.968.797.438.53.656 1.203.656 2.017 0 .812-.363 2.21-1.09 4.21s-1.09 3.24-1.09 3.71c0 .47.117.71.352.71.313 0 .773-.33 1.383-.98.61-.65 1.15-1.34 1.62-2.05l.99.93c-.938 1.7-1.96 2.99-3.08 3.85-1.12.86-2.02 1.3-2.72 1.3s-1.23-.23-1.62-.69-.58-1.09-.58-1.89.32-2.1.95-3.91c.63-1.81.95-3.09.95-3.85s-.25-1.14-.77-1.14c-.59 0-1.29.38-2.11 1.14-.82.76-1.6 1.68-2.36 2.78-1.22 1.75-2.46 3.76-3.73 6.04l-.63 1.127h-3.31l.73-2.2c1.36-4.064 2.04-6.475 2.04-7.23s-.12-1.13-.37-1.13c-.45 0-.99.54-1.61 1.62-.14.25-.26.45-.35.6-.09.15-.2.325-.314.54-.115.216-.19.34-.222.384l-1.57-.914c1.22-1.984 2.34-3.45 3.36-4.396 1.02-.947 2.016-1.39 3.08-1.39.484 0 .9.202 1.255.61.352.407.52.895.52 1.475s-.05 1.146-.14 1.7c-.092.554-.19 1.016-.302 1.383-.11.367-.23.84-.4 1.42s-.25.906-.26.984l-.016.014zm18-7.055c1.61-5 3.25-9.187 4.922-12.56l2.906.233c-.172.5-.594 1.703-1.266 3.61-1.453 4.2-2.39 7.107-2.813 8.718h3.68l-.368 1.548h-3.79c-1.44 4.438-2.15 7.137-2.15 8.098s.1 1.44.3 1.44.37-.038.53-.116c.42-.24 1.33-1.38 2.72-3.43l.96.86c-1.05 1.9-2.12 3.31-3.23 4.23-1.11.92-2.02 1.368-2.74 1.368s-1.26-.25-1.63-.75-.55-1.14-.55-1.92c0-1.99.7-5.25 2.09-9.8h-2.46l.38-1.55h2.56l-.05.023z"/></svg>