<svg xmlns="http://www.w3.org/2000/svg" width="138" height="56" viewBox="0 0 138 56">
  <path d="M0 0h138v56H0z"/>
  <path d="M10.058 39.846c-1.023-.36-1.754-.785-2.19-1.277-.44-.5-.658-1.04-.658-1.63s.164-1.09.492-1.48c.328-.39.762-.59 1.3-.59s1.017.16 1.43.48.622.77.622 1.36-.36 1.07-1.078 1.46c.594.51 1.5.77 2.72.77 2.64 0 3.96-.75 3.96-2.25 0-.94-.836-1.69-2.508-2.25-.688-.24-1.38-.49-2.074-.75s-1.3-.66-1.816-1.17-.797-1.14-.844-1.88c0-1.07.352-1.96 1.055-2.7 1.32-1.41 3.31-2.11 5.95-2.11 1.29 0 2.44.24 3.44.74s1.5 1.13 1.5 1.91-.2 1.34-.6 1.68-.87.51-1.4.51-.98-.14-1.35-.43-.55-.69-.55-1.21.3-.96.91-1.34c-.38-.27-1.03-.4-1.95-.4s-1.75.14-2.49.41-1.11.64-1.11 1.11.27.86.81 1.17 1.19.604 1.95.87 1.53.57 2.3.915c.77.343 1.42.835 1.96 1.476s.81 1.43.81 2.37-.39 1.79-1.15 2.556c-1.45 1.45-3.44 2.18-5.95 2.18-1.33 0-2.51-.18-3.53-.54zM26.452 26.37c1.61-5 3.25-9.188 4.922-12.563l2.906.234c-.172.5-.594 1.71-1.266 3.61-1.453 4.21-2.39 7.11-2.813 8.72h3.68l-.37 1.55h-3.8c-1.43 4.44-2.15 7.14-2.15 8.1s.1 1.44.3 1.44.37-.04.53-.11c.42-.23 1.33-1.37 2.72-3.42l.96.87c-1.04 1.91-2.12 3.32-3.23 4.23s-2.02 1.37-2.74 1.37-1.26-.25-1.63-.75-.55-1.14-.55-1.92c0-1.98.7-5.25 2.09-9.79h-2.46l.38-1.55h2.56zm8.438 5.53l-1.523-.913c.78-1.36 1.754-2.555 2.918-3.586s2.207-1.54 3.13-1.54c1.5 0 2.25.67 2.25 2.02 0 .57-.388 1.93-1.16 4.11s-1.16 3.55-1.16 4.13.038.95.116 1.12.25.25.52.25c1.42 0 2.89-.53 4.4-1.6s2.49-2.25 2.94-3.55l1.64-4.78c.17-.48.44-.87.8-1.15s.71-.42 1.05-.42.61.11.82.33.32.51.32.87-.07.74-.21 1.13l-1.78 5.2c-.98 3.06-2.5 6.08-4.57 9.05 1.8.186 3.4.506 4.81.96l-.19 1.31c-2.15-.44-4.06-.697-5.72-.775-1.51 1.96-3.06 3.52-4.65 4.68s-2.97 1.75-4.15 1.75-2.06-.24-2.65-.72-.88-1.13-.88-1.955.32-1.58.94-2.26 1.46-1.23 2.51-1.65c2.13-.876 4.57-1.376 7.32-1.5.22-.25.75-1.13 1.57-2.638s1.28-2.46 1.34-2.85c-2.77 2.34-5.2 3.51-7.31 3.51-.85 0-1.48-.293-1.87-.88s-.59-1.31-.59-2.167.33-2.33.98-4.42.975-3.27.975-3.56-.07-.43-.2-.43-.28.03-.436.1-.31.18-.456.33l-.41.42s-.26.32-.41.555l-.34.54c-.33.516-.54.86-.634 1.03zm6.773 12.118c-1.266.078-2.555.305-3.867.68-2.53.72-3.797 1.563-3.797 2.53 0 .58.35.868 1.07.868s1.89-.52 3.51-1.56 2.65-1.877 3.07-2.518zM61.233 8.84h3.798c-.67 1.155-1.7 3.722-3.09 7.698s-2.66 7.977-3.81 12-1.72 6.484-1.72 7.383.11 1.35.33 1.35c.66 0 1.68-.99 3.07-2.97l.99.94c-.69 1.19-1.43 2.19-2.22 3-1.4 1.44-2.54 2.16-3.42 2.16-1.59 0-2.39-.96-2.39-2.88 0-2.86.95-7.36 2.85-13.52s3.78-11.2 5.64-15.14zm5.11 26.553c.094 1.797 1.305 2.695 3.633 2.695.86 0 1.754-.246 2.684-.738s1.684-1.074 2.262-1.746l1.008.656c-1.297 2.172-3.367 3.5-6.21 3.984-.626.094-1.228.14-1.806.14-1.688 0-3.094-.558-4.22-1.675-1.124-1.12-1.687-2.48-1.687-4.09s.492-3.1 1.477-4.47c.984-1.37 2.215-2.43 3.69-3.18s2.935-1.13 4.372-1.13 2.684.33 3.738.98 1.594 1.54 1.617 2.65-.3 2.06-.97 2.87c-.67.8-1.52 1.42-2.55 1.84-2.04.83-4.05 1.24-6.02 1.24l-1-.05zm-.14-1.29c1.733-.062 3.128-.34 4.183-.83s1.79-1.056 2.203-1.688c.41-.633.62-1.297.62-1.992s-.18-1.21-.54-1.547-.74-.504-1.15-.504c-1 0-1.92.348-2.76 1.043s-1.48 1.54-1.91 2.53c-.44.993-.66 1.99-.66 2.99zM87.296 8.84h3.797C90.42 9.994 89.39 12.56 88 16.537s-2.66 7.977-3.81 12-1.723 6.484-1.723 7.383.11 1.35.328 1.35c.656 0 1.68-.993 3.07-2.978l.984.938c-.69 1.188-1.43 2.188-2.23 3-1.41 1.438-2.55 2.156-3.42 2.156-1.6 0-2.39-.96-2.39-2.883 0-2.86.94-7.367 2.84-13.523s3.78-11.204 5.64-15.14zm4.98 31.545c-.664 0-1.184-.203-1.56-.61s-.562-.964-.562-1.675.184-1.68.55-2.906.735-2.34 1.103-3.34c.367-1 .55-1.668.55-2.004s-.108-.504-.327-.504c-.547 0-1.43 1.078-2.648 3.234l-1.57-.914c2.297-3.875 4.406-5.813 6.328-5.813 1.313 0 1.97.828 1.97 2.484 0 .484-.157 1.258-.47 2.32l-1.688 4.828c-.172.453-.258.863-.258 1.23s.14.55.422.55c.53 0 1.508-.983 2.93-2.952l.984.914c-.844 1.563-1.848 2.813-3.012 3.75s-2.077 1.408-2.742 1.408zm6.668-21.457c0 .633-.21 1.207-.633 1.723s-.99.78-1.71.78-1.25-.21-1.61-.64-.54-.97-.54-1.63.23-1.23.67-1.74 1.02-.76 1.72-.76 1.23.23 1.58.67.53.99.53 1.62zm6.868 14.496c3.266-5.047 6.195-7.57 8.79-7.57.874 0 1.53.266 1.968.797s.656 1.21.656 2.02-.363 2.22-1.09 4.22-1.09 3.24-1.09 3.72.117.72.352.72c.313 0 .773-.32 1.383-.97s1.15-1.33 1.62-2.05l.99.94c-.94 1.71-1.96 2.99-3.08 3.86s-2.02 1.3-2.72 1.3-1.23-.23-1.62-.69-.58-1.09-.58-1.88.32-2.09.95-3.9.95-3.08.95-3.84-.25-1.14-.77-1.14c-.59 0-1.29.38-2.11 1.14s-1.6 1.69-2.36 2.78c-1.22 1.75-2.46 3.77-3.73 6.05l-.63 1.127h-3.3l.73-2.2c1.36-4.064 2.04-6.474 2.04-7.23s-.12-1.14-.37-1.14c-.45 0-.99.54-1.61 1.618-.14.25-.26.45-.35.6s-.2.33-.315.54c-.12.21-.19.34-.226.387l-1.57-.913c1.22-1.988 2.336-3.45 3.35-4.4s2.06-1.415 3.12-1.415c.483 0 .9.2 1.253.61s.527.892.527 1.47-.05 1.143-.14 1.7-.19 1.013-.297 1.38l-.4 1.42c-.162.577-.252.905-.27.983zm18-7.054c1.61-5 3.25-9.188 4.922-12.563l2.906.234c-.172.5-.594 1.71-1.266 3.61-1.453 4.21-2.39 7.11-2.813 8.72h3.68l-.37 1.55h-3.79c-1.44 4.44-2.15 7.14-2.15 8.1s.1 1.44.3 1.44.37-.04.53-.11c.42-.23 1.33-1.37 2.72-3.42l.96.87c-1.05 1.91-2.12 3.32-3.23 4.23s-2.02 1.37-2.74 1.37-1.26-.25-1.63-.75-.55-1.14-.55-1.92c0-1.98.7-5.25 2.09-9.79h-2.46l.378-1.55h2.556z" fill="#FFF"/>
</svg>
