<svg xmlns="http://www.w3.org/2000/svg" width="124.43" height="41.602" viewBox="0 0 124.43 41.602">
  <path d="M2.848 31.008c-1.023-.36-1.754-.785-2.19-1.277S0 28.7 0 28.11s.164-1.086.492-1.477.762-.586 1.3-.586 1.017.16 1.43.48.622.773.622 1.36-.36 1.073-1.078 1.464c.594.52 1.5.78 2.72.78 2.64 0 3.96-.75 3.96-2.25 0-.94-.836-1.69-2.508-2.25-.688-.23-1.38-.48-2.074-.75s-1.3-.65-1.816-1.17-.798-1.14-.845-1.87c0-1.06.352-1.96 1.055-2.69 1.328-1.41 3.313-2.11 5.953-2.11 1.3 0 2.45.25 3.45.74s1.5 1.13 1.5 1.91-.2 1.34-.6 1.69-.86.52-1.39.52-.98-.14-1.35-.43-.55-.69-.55-1.2.31-.96.92-1.34c-.37-.26-1.02-.39-1.94-.39s-1.75.13-2.48.41-1.1.64-1.1 1.11.27.86.81 1.17 1.19.6 1.96.87 1.53.57 2.3.91 1.42.836 1.96 1.477.81 1.43.81 2.364-.38 1.79-1.15 2.557c-1.45 1.45-3.44 2.18-5.95 2.18-1.32 0-2.5-.18-3.52-.54zM19.242 17.53c1.61-5 3.25-9.187 4.922-12.562l2.906.234c-.172.5-.594 1.703-1.266 3.61-1.453 4.202-2.39 7.108-2.813 8.718h3.68l-.37 1.547h-3.8c-1.43 4.438-2.15 7.137-2.15 8.098s.1 1.44.3 1.44.37-.038.53-.116c.42-.24 1.33-1.38 2.72-3.43l.96.86c-1.04 1.9-2.12 3.31-3.23 4.23s-2.02 1.37-2.74 1.37-1.26-.25-1.63-.75-.55-1.14-.55-1.92c0-1.99.7-5.25 2.09-9.8h-2.46l.38-1.55h2.56zm8.438 5.533l-1.523-.914c.78-1.36 1.754-2.56 2.918-3.59s2.207-1.55 3.13-1.55c1.5 0 2.25.67 2.25 2.01 0 .56-.388 1.93-1.16 4.1s-1.16 3.54-1.16 4.12.038.95.116 1.11.25.24.52.24c1.42 0 2.89-.54 4.4-1.61s2.49-2.26 2.94-3.55l1.64-4.78c.17-.49.44-.87.8-1.15s.71-.43 1.05-.43.61.11.82.33.32.51.32.86-.07.74-.21 1.13l-1.78 5.21c-.98 3.06-2.5 6.08-4.57 9.04 1.8.19 3.4.51 4.81.96l-.19 1.31c-2.15-.44-4.06-.697-5.72-.775-1.51 1.95-3.06 3.51-4.65 4.68s-2.97 1.74-4.15 1.74-2.06-.24-2.65-.716-.88-1.13-.88-1.96.32-1.584.94-2.264 1.46-1.23 2.51-1.65c2.13-.872 4.57-1.372 7.32-1.5.22-.25.75-1.13 1.57-2.634s1.28-2.45 1.34-2.84c-2.77 2.348-5.2 3.518-7.31 3.518-.86 0-1.48-.29-1.87-.88s-.59-1.31-.59-2.163.327-2.33.976-4.42.973-3.274.973-3.564-.07-.43-.2-.43-.28.03-.438.1-.31.18-.45.33-.28.29-.41.42-.26.317-.41.55l-.34.54c-.33.51-.54.86-.63 1.03zm6.773 12.117c-1.266.078-2.555.305-3.867.68-2.53.72-3.797 1.563-3.797 2.53 0 .58.35.868 1.07.868s1.89-.52 3.51-1.56 2.65-1.878 3.07-2.518zM54.023 0h3.797c-.672 1.156-1.703 3.723-3.094 7.7s-2.66 7.976-3.81 12-1.722 6.483-1.722 7.382.11 1.348.328 1.348c.656 0 1.68-.992 3.07-2.977l.984.938c-.688 1.19-1.43 2.19-2.227 3-1.41 1.44-2.55 2.16-3.43 2.16-1.6 0-2.39-.96-2.39-2.88 0-2.86.95-7.36 2.84-13.52S52.16 3.94 54.02 0zm5.11 26.555c.094 1.797 1.305 2.695 3.633 2.695.86 0 1.754-.246 2.684-.738s1.684-1.074 2.262-1.746l1.008.656c-1.297 2.172-3.367 3.5-6.21 3.984-.626.094-1.228.14-1.806.14-1.688 0-3.094-.558-4.22-1.675s-1.687-2.48-1.687-4.09.492-3.09 1.477-4.46 2.215-2.42 3.69-3.17 2.935-1.12 4.372-1.12 2.684.33 3.738.99 1.594 1.54 1.617 2.65-.3 2.07-.97 2.87-1.52 1.42-2.55 1.84c-2.04.83-4.05 1.24-6.02 1.24l-1-.04zm-.14-1.29c1.733-.062 3.128-.34 4.183-.83s1.79-1.056 2.203-1.69.62-1.296.62-1.99-.18-1.212-.54-1.548-.74-.504-1.15-.504c-1 0-1.92.348-2.76 1.043s-1.48 1.54-1.91 2.53-.66 1.99-.66 2.99zM80.086 0h3.797c-.672 1.156-1.703 3.723-3.094 7.7s-2.66 7.976-3.81 12-1.73 6.483-1.73 7.382.11 1.348.33 1.348c.65 0 1.68-.992 3.07-2.977l.98.938c-.69 1.19-1.43 2.19-2.23 3-1.41 1.44-2.55 2.16-3.43 2.16-1.6 0-2.39-.96-2.39-2.88 0-2.86.95-7.36 2.84-13.52S78.23 3.94 80.09 0zm4.98 31.547c-.664 0-1.184-.203-1.56-.61s-.562-.964-.562-1.675.184-1.68.55-2.906.735-2.34 1.103-3.34.55-1.668.55-2.004-.108-.504-.327-.504c-.547 0-1.43 1.078-2.648 3.234l-1.57-.914c2.297-3.875 4.406-5.813 6.328-5.813 1.313 0 1.97.828 1.97 2.484 0 .48-.157 1.25-.47 2.32l-1.688 4.82c-.172.45-.258.86-.258 1.23s.14.55.422.55c.53 0 1.508-.99 2.93-2.95l.984.91c-.844 1.56-1.848 2.81-3.012 3.75s-2.078 1.4-2.742 1.4zm6.668-21.457c0 .633-.21 1.207-.633 1.723s-.99.773-1.71.773-1.25-.215-1.61-.645-.54-.97-.54-1.62.23-1.24.67-1.74 1.02-.76 1.72-.76 1.23.23 1.58.67.53.99.53 1.62zm6.868 14.496c3.266-5.047 6.195-7.57 8.79-7.57.874 0 1.53.266 1.968.797s.656 1.203.656 2.016-.363 2.21-1.09 4.21-1.09 3.24-1.09 3.71.117.71.352.71c.313 0 .773-.33 1.383-.98s1.15-1.34 1.62-2.05l.99.93c-.94 1.7-1.96 2.99-3.08 3.85s-2.02 1.3-2.72 1.3-1.23-.23-1.62-.69-.58-1.09-.58-1.89.32-2.1.95-3.91.95-3.09.95-3.85-.25-1.14-.77-1.14c-.59 0-1.29.38-2.11 1.14s-1.6 1.68-2.36 2.78c-1.22 1.75-2.46 3.76-3.73 6.04l-.63 1.126h-3.31l.73-2.2c1.36-4.064 2.04-6.474 2.04-7.23s-.12-1.13-.37-1.13c-.45 0-.99.54-1.61 1.62-.14.25-.26.45-.35.6s-.2.325-.315.54-.19.34-.222.383l-1.57-.915c1.22-1.984 2.34-3.45 3.36-4.395S96.88 17 97.945 17c.483 0 .9.202 1.253.61s.52.896.52 1.475-.05 1.146-.14 1.7-.19 1.016-.3 1.383-.23.84-.4 1.42-.25.906-.26.984zm18-7.056c1.61-5 3.25-9.187 4.922-12.562l2.906.234c-.172.5-.594 1.703-1.266 3.61-1.453 4.202-2.39 7.108-2.813 8.718h3.68l-.37 1.547h-3.79c-1.44 4.438-2.15 7.137-2.15 8.098s.1 1.44.3 1.44.37-.038.53-.116c.42-.24 1.33-1.38 2.72-3.43l.96.86c-1.05 1.9-2.12 3.31-3.23 4.23s-2.02 1.37-2.74 1.37-1.26-.25-1.63-.75-.55-1.14-.55-1.92c0-1.99.7-5.25 2.09-9.8h-2.46l.38-1.55h2.558z"/>
</svg>
